<?xml version="1.0" encoding="utf-8"?>
<!-- Generator: Adobe Illustrator 24.2.1, SVG Export Plug-In . SVG Version: 6.00 Build 0)  -->
<svg version="1.1" id="Layer_1" xmlns="http://www.w3.org/2000/svg" xmlns:xlink="http://www.w3.org/1999/xlink" x="0px" y="0px"
	 viewBox="0 0 3850.2 3000.2" style="enable-background:new 0 0 3850.2 3000.2;" xml:space="preserve">
<style type="text/css">
	.st0{fill:none;stroke:#000000;stroke-width:40;stroke-miterlimit:10;}
</style>
<g>
	<g>
		<path class="st0" d="M165.3,306.3c75.1,19.7,153,25.8,230.1,32.5c81.1,7,162.3,12.8,243.5,19.4c77.4,6.3,154.9,13.3,231.7,24.5
			c46.2,6.7,96.7,13.5,139.5,33.2c18.2,8.4,38.2,20.8,32.6,43.5c-4.3,17.3-15.3,32.2-18.5,50.6c-6.5,37,0.5,74.9,9.1,110.9
			c13.7,57.8,38.6,121.3,3.2,176.3c-21,32.5-57.2,49.9-92.8,62c-56.9,19.4-117.8,27.8-177.2,35c-70.5,8.5-141.4,14-211.8,23.3
			c-44.9,5.9-98.9,9.9-137.8,35.5c-81.6,53.7,40.1,160.1,78.7,198.9c36.7,37,82.8,74.4,106.8,121.6c14.9,29.3-1,50.3-14.3,76.4
			c-27.8,54.6-55.7,109.2-83.5,163.8c-14.5,28.4-31.6,56.7-43.8,86.2c-8.5,20.7-8.8,40.3,4.7,58.7c27.3,37.2,97.3,60.2,69.5,118.5"
			/>
		<path class="st0" d="M205.1,344.1c80.9,22.5,167.6,25.2,251,30.7c92,6,184,10.9,276,16.8c83.6,5.4,167.5,11.2,250.5,23
			c29.8,4.2,59.4,9,88.3,17.2c14,4,30.7,7.8,42.1,17.4c16.9,14.4,6.8,26.3-0.4,43.3c-7.1,16.7-12,34.2-14.6,52.1
			c-5.2,35.3-1.3,71,4.8,105.9c10.2,59.3,33.6,125.4-6.7,178.2c-45.6,59.8-124.7,91.5-193.4,114.9c-46.5,15.8-94.2,28.5-139.7,47
			c-35,14.2-74.2,27.9-103.1,53c-56.3,48.8-21.4,116.8,6,171.5c14.1,28.2,38.2,66.5,26.9,99.1c-8.6,24.8-24.6,49-36.5,72.4
			c-27,52.9-54,105.8-81,158.8c-12.4,24.3-34.7,54.3-34.7,82.7c0.1,21.9,14.5,37.2,30.1,50.8c16.6,14.5,37.3,27.6,46.7,48.4
			c13.9,30.8-4.9,62.3-23.3,86.5"/>
		<path class="st0" d="M562.3,313.9c56.3,28.4,118.5,40.9,180,52.5c83.4,15.7,167.6,27.1,251.5,39.4c59.5,8.8,123.7,13,180.7,33
			c10.1,3.5,29.5,9,33.9,19.9c4.1,10.2-0.3,14.4-4.8,23.6c-15.7,32.2-32.3,62.7-41.3,97.7c-8.6,33.5-10.8,67.8-10.8,102.2
			c0,60.9,4.4,118.2-33.4,170c-39.2,53.6-99.1,85.8-148.8,128c-24.4,20.7-37.9,44.5-56.8,69.5c-18.6,24.5-43.4,43.8-63.7,66.8
			c-39.7,44.8-47.1,91.7-54.8,148.8c-7.5,55.7-43.9,107.8-69.1,157.2c-27,52.9-53.9,105.8-80.9,158.7
			c-11.4,22.4-23.3,46.7-10.8,71.2c8.6,16.7,25.1,27.9,38.8,40.1c16.6,14.9,31.3,32.2,30.1,55.8c-2.6,53.2-71.4,92.3-107.7,120.4"/>
		<path class="st0" d="M988.9,234c26.4,29.1,62.1,46.6,97.1,63.3c45.2,21.5,92,40.1,135.9,64.2c24.8,13.6,61.2,32.2,70.5,61.6
			c6.8,21.4-11.2,54.2-18.4,74.5c-25.4,72-64.2,137.7-83.4,211.9c-14.2,54.7-21.2,110.7-50.3,160.3c-31.2,52.9-79,91.8-115.2,140.7
			c-32.3,43.6-54.9,99.2-79.2,147.7c-24.8,49.6-45.6,101.9-74.4,149.3c-28.4,46.7-51,97.8-75.8,146.5c-14.6,28.7-29.2,57.3-43.8,86
			c-12.1,23.7-27.8,47.8-35.2,73.4c-15,52.2,29.3,64.4,56.6,97.4c16.3,19.7,13.5,48.2-1.1,68.6c-21.8,30.4-62.2,52-92.7,71.9
			c-51.2,33.3-103.9,64.5-156.2,95.9"/>
		<path class="st0" d="M1320.8,148.2c-3.1,48.1,43.8,88.7,51.1,135.7c4.9,31.5-7.8,63.6-15.6,93.7c-8.1,31.2-16.3,62.3-24.7,93.4
			c-24.4,90.2-46.6,183.7-85.7,269c-24.2,52.8-44.5,107.8-71.1,159.5c-25.9,50.5-57.2,98.7-85.6,147.8
			c-28.9,50.1-64.1,96.2-90.4,147.9c-24,47.2-38.6,98.1-60.3,146.3c-23.3,51.6-50.4,101.6-76.1,152.1
			c-13.4,26.2-26.7,52.4-40.1,78.6c-12.4,24.3-27.5,48.9-32,76.2c-7.9,47.7,28.7,64.3,49.8,99.9c23.5,39.6-23.5,66.2-52.3,85.8
			c-115.9,78.6-244.7,139-368.4,204.1"/>
		<path class="st0" d="M1490.9,100.5c-10.5,15.6-16,33.7-22.3,51.2c-8.9,24.6-21,47.5-28.4,72.6c-22.2,74.9-43.6,150.1-64.2,225.5
			c-28.8,105-57.2,210.4-80.2,316.8c-12.9,59.7-29.7,112.3-60.1,165.5c-28.9,50.8-49.9,105-86.8,150.8
			c-39.5,49-84.5,94.2-115.7,149.3c-26.1,46.2-34.5,96.8-45.6,148c-11.5,53-30.6,101.2-56.2,148.9c-26.8,49.8-59.4,101.7-75.7,156.1
			c-6.3,21-8.7,42.6-5,64.3c3.3,19.2,12,37.4,13.9,56.9c1.7,17.4-6.3,27.6-18.5,39.6c-27.3,26.8-62,47.1-94.5,66.8
			c-123.4,74.7-253.8,138-382.2,203.7"/>
		<path class="st0" d="M1575.6,126c-44.2,17.2-61,63.1-77.6,103.8c-33.1,81.2-61.1,164.7-87.9,248.2c-32,99.7-74.2,206-72.6,312.1
			c0.9,61.2-2.4,118-29.7,174c-26.5,54.5-61.5,109.8-104.7,152.4c-48.4,47.8-103.8,91.1-140.8,149.1c-33.5,52.6-29.3,109.1-31,169.1
			c-1.5,51.9-6.9,103.8-33.1,149.7c-25.9,45.3-54.2,88.9-77.8,135.6c-24,47.6-36.8,95.7-45.1,147.8c-3.5,22.1-23.2,40-39,54
			c-23.2,20.6-49.1,38.2-75.1,55.1c-103.3,67.4-213.5,124.3-321.8,183.1"/>
		<path class="st0" d="M1705.8,205.9c-56.1,16.3-97.8,66.9-131.1,112.3c-47.6,64.8-83.8,137.7-115,211.6
			c-24.5,57.9-54.1,118.1-70.6,179c-9.2,33.8-2.2,68.9,2.7,102.8c9.2,63.4,8.3,123.2-27.4,178.8c-18.6,29-42.4,55.3-62.8,83.1
			c-20.6,28.1-41.8,55.7-64.8,81.9c-43.4,49.5-101.2,92.2-135.3,149c-33.1,55-18.5,131.2-15.2,192c2.9,54.4,8.7,119.8-25.3,166.4
			c-27.3,37.3-63,66.5-86.1,107.2c-26.8,47.2-45.5,101.1-65.7,151.3c-17.7,44.2-50.6,77-86.9,106.9c-63.3,52-133.7,95.4-202.2,140"
			/>
		<path class="st0" d="M1855.7,312.1c-140,51.5-245.4,150.8-322,277.6c-17.8,29.4-33.4,59.7-48.6,90.5
			c-9.1,18.2-18.6,35.4-22.3,55.7c-6.7,37,4.8,73.9,8.6,110.6c3.4,32.7,2.1,65.5-10.8,96.2c-14.4,34.2-39.6,56.5-65.7,81.5
			c-52.3,50-83.3,122.6-123.7,181.9c-19.4,28.6-40.4,55.9-61.8,83c-14.8,18.7-31.5,37.1-39.5,59.9c-24.4,69.3-10.7,153.4-9,225.3
			c1.4,57.6,5.9,123.6-41.2,164.4c-39.9,34.6-92.4,57.5-122.9,102.2c-24.7,36.1-23.5,84.4-35.6,125.5
			c-23.6,80-72.2,137.5-129.1,196.8"/>
		<path class="st0" d="M1977.8,401.6c-69.6,21.8-139.1,41.2-202.7,78.1c-57.7,33.5-109.2,78.4-148.2,132.7
			c-30.1,42-48.9,86.1-55.6,137.5c-5.8,45.3-2.4,91-7.1,136.3c-3.7,36.1-15.4,68.3-41.9,94c-29.6,28.8-69,42-95.5,74.6
			c-51,62.7-77.2,144.8-112.8,216.5c-14.6,29.5-30.4,58.2-47.8,86.2c-11.9,19.1-20.9,37.1-25.1,59.4c-12.5,67.8,0.7,139.8,0.9,208.2
			c0.1,35.1,0.2,75.4-14.6,108.1c-13.5,29.6-40.3,50.7-66.5,68.6c-50.6,34.7-119.1,59.4-157.4,109.2c-29.1,37.9-3.9,68.3,0.3,108.6
			c6.3,60.2-36.2,125.8-69.7,171.9"/>
		<path class="st0" d="M2040,444.9c-61.7,23.4-127.7,33.1-188.2,60c-46.2,20.6-98.1,52.5-120.3,100.2
			c-48.8,104.6-18.9,227.1-60.5,332.9c-15.8,40.2-45.8,66.9-84,85.8c-38.5,19-71.9,42.9-100.3,75.4
			c-61.5,70.5-83.9,158.6-117.4,243.6c-18.6,47.3-50.1,89.9-56.8,141c-7.7,58.1-0.1,117.3-4.9,175.6c-3,36.2-10.1,68.8-30.8,99.2
			c-19.2,28-45.1,50.7-72,71.1c-35.6,27.1-74.1,50-111.2,75c-26.9,18.2-57.8,39.6-74.5,68.3c-25.5,44,22.1,58.7,39.9,91.1
			c11.4,20.6,6.9,43.8-1,64.8c-17.6,46.7-51.4,87.9-81,127.2"/>
		<path class="st0" d="M2049.5,482.8c-48.6,13.9-100.3,19.8-147.2,39.1c-51.3,21.1-64.4,59.8-71.8,112.1
			c-8.9,62.7-8.7,126.5-11.8,189.7c-2.8,57.7-4.7,123-34,174.6c-22.6,39.7-60.7,54.3-97.9,76.5c-38.9,23.2-74.4,51.4-105.4,84.4
			c-63,67.2-102.4,149.2-141.1,231.8c-21.2,45.3-45.6,88.1-55.8,137.6c-10.1,49.2-11.2,99.8-23.9,148.6
			c-16.9,64.9-48.8,113.8-98.4,158.9c-33.2,30.2-69,57.2-102.8,86.7c-27.2,23.8-57.6,50-71.6,84.2c-8.7,21.3-8.6,39.5,9.6,54.6
			c12.9,10.7,29.4,18,38.6,32.7c14.7,23.4,1.8,50.3-8.3,72.7c-31.4,69.1-68.9,134.9-109,199.2"/>
		<path class="st0" d="M2055.4,545.4c-33.6,14.4-72.1,20.1-103.5,39.2c-36.7,22.2-35.8,77.3-37.5,115.4c-2.8,66.1,0.4,132.5,2,198.6
			c1.3,51,3.8,113.4-25.2,158.2c-20.3,31.3-61.8,47.5-93,65.7c-34.7,20.2-68.2,42.4-98.7,68.6c-67,57.6-113.5,130.6-158.7,205.4
			c-30.9,51.1-57.6,104.5-78.2,160.5c-16.6,44.9-35.8,90.8-48.2,136.9c-14.1,52.3-31.4,95.2-66.3,137.5
			c-47,56.8-109.1,107.4-138.3,176.7c-8.6,20.4-12.2,41.3-3.5,62.1c6.5,15.6,19.1,28.6,21.8,45.7c2.1,13-2.3,25.1-7.3,36.8
			c-10.4,24.5-20.4,49-30,73.9c-38.2,98.4-79,195.4-125.4,290.2"/>
		<path class="st0" d="M2083.6,620.1c-21.1,19.2-48.6,33.5-66.2,56.5c-23.7,31-25.3,77.3-26.9,114.4c-2.6,59,0.9,118.2,0.5,177.2
			c-0.3,44.2,1.7,94.4-24.8,132c-19.5,27.8-47.8,42.2-77.2,57.7c-30.4,16.1-60.7,32.4-88.5,52.8c-64.6,47.3-107.2,111.3-146.8,179.6
			c-33.8,58.3-64.2,118.3-94.2,178.6c-23.6,47.4-57.1,94.4-72.7,145c-5.6,18-6.1,36.1-9.4,54.5c-4,22.3-13,42.7-24,62.4
			c-33.6,59.9-81.6,111.1-111.2,173.3c-10.9,22.9-18.2,46.8-20.8,72.1c-2.1,20.2-2.1,40.4-7.8,60.1c-7.5,25.9-21.3,50.9-31.2,75.9
			c-15.3,38.9-29.8,78.1-44.1,117.3c-41.9,115.2-81.2,231.5-124.3,346.2"/>
		<path class="st0" d="M2140.6,685.2c-17.1,28.3-37.5,54.5-54.1,82.9c-19.2,32.7-27.2,70.5-32,107.7
			c-10.2,79.7,4.2,175.3-42.7,245.3c-33.6,50.3-91,70.8-138.1,104.9c-53.6,38.8-80.6,106.5-110.9,163.1
			c-33.3,62.2-65.3,125.2-99.6,186.8c-29,52-59.5,99.4-75.1,157.4c-10.7,39.6-21.3,76.8-38.8,114.1c-26.6,56.6-63.2,107.7-92.4,163
			c-27.2,51.6-46.2,107-70.9,159.8c-35.8,76.5-63,157.7-91.6,237.1c-42.4,117.6-83.5,235.7-125.2,353.6"/>
		<path class="st0" d="M2235.5,709.1c-53.6,68.6-101.3,144.7-126.2,228.8c-10.1,34.1-18.3,69.2-26.1,103.9
			c-7.2,32-7.5,65.5-18.2,96.7c-19,55.1-69.5,84.9-111.9,120.4c-48.3,40.4-78.6,97.8-104.1,154.4c-27.1,60-55.7,119.4-88.7,176.4
			c-32.6,56.5-38.7,113.9-47.8,177.2c-3.6,24.7-8.4,49.6-20.1,71.9c-11.4,21.6-28.4,37.2-45.1,54.5
			c-42.5,43.9-79.5,90.1-107.3,144.7c-29.9,58.8-62.5,116.9-89.2,177.2c-73.1,165.1-129.1,338.1-190.9,507.6"/>
		<path class="st0" d="M2396.3,693c-80.2,86.4-172.1,168.9-225.1,276c-15.5,31.4-35.3,64.2-36.2,99.9c-0.8,31.8,8.2,62.8,8.6,94.6
			c0.8,59.7-38.1,97.7-77.4,137.5c-48.8,49.5-93.2,103.7-133.2,160.5c-31.5,44.8-70.6,97-86.8,149.9c-19.9,64.7,1.5,137.1-0.1,203.3
			c-1.5,63.5-27.9,102.9-80.1,137.2c-55.7,36.5-114.3,67.6-154.5,122.6c-35.8,49-60.2,109.5-87.2,163.8
			c-58.5,117.7-101.7,243.2-149.5,365.5"/>
		<path class="st0" d="M2569.2,670.2c-73.9,67.7-150.1,133.2-221.2,204c-39.5,39.3-80.1,81-107.8,129.8
			c-17.3,30.6-28.1,62.2-23.6,97.6c4.2,32.9,19.1,62.6,27.4,94.4c17.2,65.8-16.9,106.9-58.1,154.3
			c-49.9,57.5-99.3,115.3-148.8,173.1c-35.1,41-87.1,83.5-97.8,138.7c-13.9,71.1,21.7,139.6,26.7,209.6c2.1,30.1-0.9,63.8-20.9,88.1
			c-18.7,22.7-50.1,35.7-76.4,47c-64.8,27.8-138.3,49.1-186.2,104.2c-40.7,46.8-62.9,113.8-90.9,168.6c-37.7,74-75,147-107.4,223.7"
			/>
		<path class="st0" d="M2687.6,677.8c-86.7,74.3-175.8,146.3-259.5,224c-43,39.9-94.1,83.7-118.6,138.4
			c-29.8,66.7,0.7,126.3,22.1,189.9c8.9,26.5,14.6,54,4.8,81.1c-11.1,30.5-31.7,59.5-49.2,86.5c-43.3,66.8-91.2,130.9-142.8,191.5
			c-35.8,42-88.1,79.7-106,133.6c-20.8,62.2,0.8,127.9,5.3,190.9c2.3,32.3,0,60.6-23.3,85c-22.7,23.7-54.4,35.2-84.6,46
			c-63.3,22.8-141.9,39.7-185.2,96c-23.7,30.7-36.8,71.8-52.4,107c-15.8,35.4-31.5,70.9-48.5,105.7c-25.5,52.2-57.8,99.8-85.8,150.5
			"/>
		<path class="st0" d="M2721.8,732.1c-84.1,73.2-171.9,142.7-252.1,220.3c-37.8,36.7-71.7,74.2-90.9,123.8
			c-24.7,64.1-8.7,121.6,3,186.2c11.6,64.4-14.2,128-38.5,186.9c-29.4,71.2-65.4,140.8-109.2,204.3
			c-30.9,44.8-81.8,66.6-115.4,108.5c-38.2,47.6-35.2,106.5-38.1,164.1c-3.4,68.3-52.2,107.7-109.7,136.2
			c-32.1,15.9-66.6,28.2-97.1,47.2c-28.9,18-45,41.4-58.8,72c-40.2,89.2-72.7,181.7-113.4,270.7c-13,28.3-26.3,57.1-45.5,81.8
			c-12.4,15.9-25.5,31.1-37.4,47.3"/>
		<path class="st0" d="M2695.7,820c-63.9,61.7-135.9,119.5-192.1,188.6c-23.9,29.4-40.8,68-57.1,102.1
			c-29.6,62.1-33.3,122.3-39.7,189.5c-6.2,64.7-19.7,128.3-37.1,190.9c-9.9,35.7-20.9,71-32.6,106.1c-10,29.9-18.3,62.7-33.2,90.7
			c-28.2,53.1-86.4,67.4-132.7,99.6c-52.1,36.3-63.6,83.3-74.6,142.3c-11.4,61.1-47.5,105.3-94.8,143.6
			c-25,20.3-52.2,38.7-73.4,63.1c-22.9,26.4-34.4,62.4-47.5,94.3c-44.8,109-82.1,221.1-129.8,328.8c-12.8,28.8-25.8,55.6-46.4,79.5
			c-14.4,16.7-30.1,32.3-45.1,48.6"/>
		<path class="st0" d="M2678,903.2c-38.2,44.8-82.8,88.2-110,140.9c-17.8,34.6-37.9,67.9-55.6,102.6c-30.7,60.5-62.2,123.4-80.4,189
			c-16.5,59.7-28.4,120.8-42.1,181.2c-7.5,33.2-15.2,66.5-22.5,99.8c-6.3,29.1-11.6,58.2-25.6,84.8
			c-27.4,51.8-79.3,78.1-127.2,107.4c-24.2,14.8-48.2,30.2-62.8,55.4c-13.9,24.1-19.4,53.2-28.1,79.5
			c-18.3,55.4-45.8,103.1-80.6,149.7c-45.2,60.5-72.9,126.8-100.7,196.8c-45.1,113.5-83.5,230.1-132.9,341.9
			c-27.2,61.5-70,111.4-113.8,161.5"/>
		<path class="st0" d="M2699.9,964.4c-22.6,36.3-40.8,75.8-68.3,108.8c-22.6,27.1-46.9,52.5-65.4,82.8
			c-39.6,64.8-49.5,141.3-78.2,210.8c-23.3,56.3-49.4,109.5-66.6,168.3c-16.5,56.5-21,116.9-40.4,172.2
			c-18.1,51.4-55.6,86.4-94.8,122.3c-43.6,39.9-73.2,88.5-102.2,139.6c-63.9,112.6-121.8,230.9-170.7,350.6
			c-42.4,103.7-77.7,211.3-125.8,312.6c-40.1,84.5-93,160.6-146.8,236.7"/>
		<path class="st0" d="M2761.1,1003.8c-9.9,19.8-17.5,38.2-33.9,53.7c-13.2,12.5-28.9,21.8-44.5,30.9c-28.7,16.8-58,33.1-79.6,58.9
			c-52.6,62.6-50.5,158-65.5,234.6c-12.2,62.6-31,122.3-59.7,179.3c-14.2,28.2-25.2,54.1-29.9,85.6c-3.6,24.3-4.8,48.9-8.7,73.2
			c-18.6,114.6-114.6,197.3-179.4,287.7c-33.8,47.2-60.2,98-86.1,149.9c-29.1,58.4-59.1,116-85.4,175.8
			c-38.4,87.3-72.2,176.7-113.3,262.8c-47.9,100.4-106.4,194.8-162.6,290.6"/>
		<path class="st0" d="M2831,1037.7c-50.2,68-145.1,42.8-201.2,100c-27.3,27.8-32.9,65.9-37.6,102.9c-6.3,50.1-9.4,100.5-14.5,150.7
			c-7.1,69.1-19.9,134.3-41.8,200.1c-17.1,51.5-14.6,105-18.1,158.3c-3.5,53-17.6,105.3-50.6,147.8
			c-39.1,50.4-87.5,93.1-128.6,141.8c-40.1,47.6-66.2,99.5-96,153.5c-28.8,52.2-54.9,104.7-80.8,158.4
			c-35.2,72.8-67.8,146.7-102.9,219.5c-47.3,97.9-101,192.4-150.8,288.9"/>
		<path class="st0" d="M2895.4,1066.7c-32.9,28-72.1,37.3-113.8,44.2c-33.5,5.5-75,8.4-101.9,31.7c-29.6,25.8-35.1,74.3-40.6,110.7
			c-7.8,51.4-11.2,103.5-16.2,155.2c-3.9,40.2-8.2,80.6-16.2,120.3c-5.8,29-16,57.1-19.6,86.5c-6.8,56.4,3.7,112.6,5,168.9
			c1.2,56.8-13.5,105.2-50,149.4c-43.1,52.2-96.6,94.9-140.6,146.3c-38.4,44.7-64.1,97-103.6,141c-43.2,48.2-78.6,96.8-93.8,160.9
			c-7.4,31.3-12.2,62-22.9,92.6c-10,28.6-23.3,55.3-36.8,82.4c-43.2,87.1-87.4,173.8-130.9,260.8"/>
		<path class="st0" d="M2962.8,1099.7c-30.4,27.1-65.2,41.3-103.7,53.1c-33.1,10.2-71.5,18.3-95.4,45.3
			c-58.4,66-65.5,168.8-81,251.3c-12.1,64.8-39.3,128.1-41.6,194.2c-2.1,58.5,9.5,116.4,8.2,174.8
			c-2.9,127.3-112.7,199.9-183.8,291.9c-19.4,25.1-32.3,54.7-55.9,76.3c-26.3,24-57.5,42.2-86.7,62.2
			c-53.3,36.5-106.7,81.1-111,150.2c-4.1,65.5,11.9,129.9-5.8,194.7c-9,32.9-25,62.5-40.9,92.4c-19.2,36-37,72.8-55.3,109.2"/>
		<path class="st0" d="M3035.8,1139.8c-45.2,58.3-112.2,89.4-167.6,136.6c-66.2,56.4-89.8,137.4-113,218c-5.1,17.8-9.9,36.2-17,53.3
			c-6.1,14.7-14.1,27.8-18.4,43.2c-7.7,27.9-11.9,57.2-13.8,86.1c-3.9,59.1,3,119.5-8.4,177.9c-22.9,117.3-111.7,195-171.1,292.9
			c-40.2,66.1-113.5,87.7-180.8,118.2c-60.1,27.2-144.6,68.3-131.2,147.5c12,70.8,52.3,134.9,50.4,208.5
			c-1.8,69.3-48.7,134.3-79.6,194.1"/>
		<path class="st0" d="M3109.3,1177.2c-19.8,35.4-39.1,70.2-63.5,102.7c-23.1,30.9-49.3,45.5-82.9,63.5
			c-70.3,37.5-107.6,94.8-135.8,167.8c-15.4,39.9-21.8,73.1-22.1,116.1c-0.2,31.7,0.2,63.4-4.9,94.8c-5.1,31.6-17.8,60.1-26.6,90.6
			c-7.4,25.8-14.6,50.6-24.8,75.6c-20.2,49.9-40.9,99-67.6,145.9c-15.3,26.8-31.9,52.7-47.9,79.1c-12.9,21.2-23,46-39.8,64.4
			c-25.6,28.1-64.3,43.9-98.5,58.4c-39.6,16.8-79.9,31.8-119.1,49.6c-37.5,17-78.4,36.4-107.3,66.6c-23.7,24.8-24.4,53.5-15.3,85
			c21.5,74.4,77.7,139,81.3,218.7c3.2,71-57.8,128.6-91.4,186.2"/>
		<path class="st0" d="M3237.6,1185.1c-31.3,47.7-69.9,91.8-108.1,134.2c-26.6,29.6-54.9,47.2-91.9,60.7
			c-61.6,22.4-141.3,68.9-135.1,145.6c8.2,100.5,88,192,77.3,295.2c-3.8,36.6-25.6,60.8-59.1,74.3c-29.8,12-57.6,21.3-85.1,38.8
			c-50.1,31.9-68.4,83.3-94.7,134c-23.9,46.2-42.6,105.1-90.1,131.6c-68.8,38.3-149.5,49.4-218,89.6c-33.1,19.4-67.6,45.7-82.7,82.2
			c-14.2,34.4-11.3,72.7-1.7,107.9c19.2,70.4,80.5,143.9,66.2,220.1c-6.2,33-34.3,57.8-57.9,79.5c-25.9,23.9-51.3,47.2-72.8,75.3"/>
		<path class="st0" d="M3437.3,1160.4c-72.1,113.9-205,186-328.2,231.2c-32.3,11.9-71.6,20.1-96.7,45.2
			c-12.3,12.3-25.7,29.1-25.1,47.2c0.9,30.7,21.8,64,36.2,89.7c44.5,79.3,97.9,153.4,144.2,231.6c27.4,46.2,64.4,103,66.4,158.7
			c1.7,50.6-39.1,60.1-81.4,62.7c-52.7,3.3-105.7-0.5-158.5,0.7c-70.4,1.6-151.7,8.3-188.6,77.2c-12.6,23.5-18.4,51.4-36.8,71.4
			c-17.3,18.9-41.9,26.9-66,33.2c-65,17-134.2,25.8-186.7,72.1c-63.1,55.6-67.3,143.2-52.3,220.4c8.3,42.6,22.2,83.8,31.3,126.2
			c7.7,35.8,12.3,73.1-9.4,104.9c-20.1,29.5-51.5,45.8-82,62.6c-32.3,17.8-63,35.9-89.2,62.2"/>
		<path class="st0" d="M3662.5,1124.2c-21.1,32.9-51,57.4-81.8,80.9c-44.2,33.8-91.3,64.2-139.4,92.2
			c-76.6,44.6-156.1,83.6-237.1,119.5c-25.2,11.2-50.8,21.8-75.4,34.2c-13.3,6.7-33.4,15.3-41.8,28.4c-12.5,19.6,1.8,47.1,10.9,65.3
			c22.9,45.7,55.2,87.3,86.1,127.6c70.8,92.2,147.9,179.4,217,272.9c22.9,31,45.1,62.7,64.4,96c13.5,23.4,31.6,55.4,30.4,83.8
			c-2.4,53.1-88.2,31.9-119.9,27.7c-73.9-10-146.9-26.1-220.5-38.4c-62.2-10.5-127.3-21.7-190.7-16c-30.9,2.8-66.3,10.2-85.5,37.1
			c-9.6,13.4-12.9,28.2-24.4,40.7c-8.1,8.7-17.5,15.7-28,21.1c-21.1,10.8-45.1,14.2-68.4,16.6c-58.8,6-114.3,12.2-148.2,67.2
			c-42,68.1-44.3,151-38.6,228.5c5.9,81.1,24.5,164-29,233.5c-24.1,31.3-56.7,53.1-91.7,70.6c-33.7,16.8-69.6,29.1-98.1,54.5"/>
		<path class="st0" d="M3827.4,1115.4c-70.6,80.3-170.4,138.7-259.9,194.9c-91.7,57.6-186.5,109.8-280.7,163.2
			c-32.6,18.5-99.7,42.1-93.2,88.8c4.4,31.8,25.8,63.6,42.9,89.7c26.3,40.2,56,78.1,86,115.6c73,91.2,151.1,178.2,224.1,269.4
			c29.1,36.3,58.9,73.4,82.4,113.7c8.7,14.9,26.2,40,20.6,58.3c-7.3,23.8-40.3,21.8-59.5,21.2c-33.4-0.9-66.6-7.6-99.3-14
			c-81.7-16.1-162.3-37.9-243.6-56.4c-70.4-16-145.2-34.5-218-31.7c-19.2,0.7-42.9,2.8-59.3,14.2c-11.4,7.9-16.1,19.4-23.2,30.7
			c-28.8,45.4-75.8,59.6-126.5,66c-56.1,7-105.3,10.9-127.3,70.4c-25.2,68.3-24.8,146.6-29.1,218.4c-4.8,80.3-21.9,159.9-65.4,228.9
			c-21.1,33.3-48.7,61-80.5,84.1c-30.6,22.3-64.4,39.8-92.9,64.8"/>
	</g>
</g>
</svg>
