<?xml version="1.0" encoding="utf-8"?>
<!-- Generator: Adobe Illustrator 24.2.1, SVG Export Plug-In . SVG Version: 6.00 Build 0)  -->
<svg version="1.1" id="Layer_1" xmlns="http://www.w3.org/2000/svg" xmlns:xlink="http://www.w3.org/1999/xlink" x="0px" y="0px"
	 viewBox="0 0 3850.17 3000.17" style="enable-background:new 0 0 3850.17 3000.17;" xml:space="preserve">
<style type="text/css">
	.st0{fill:none;stroke:#000000;stroke-width:40;stroke-miterlimit:10;}
</style>
<g>
	<g>
		<path class="st0" d="M165.32,306.3c75.1,19.74,152.98,25.79,230.14,32.46c81.12,7.01,162.33,12.77,243.48,19.42
			c77.39,6.34,154.86,13.33,231.72,24.49c46.18,6.7,96.69,13.49,139.45,33.16c18.2,8.37,38.18,20.83,32.59,43.47
			c-4.26,17.26-15.28,32.2-18.51,50.62c-6.47,36.96,0.51,74.93,9.07,110.94c13.74,57.8,38.63,121.29,3.18,176.32
			c-20.97,32.55-57.22,49.94-92.78,62.05c-56.91,19.38-117.76,27.75-177.2,34.95c-70.49,8.54-141.35,14-211.75,23.29
			c-44.94,5.93-98.86,9.87-137.78,35.47c-81.61,53.68,40.15,160.12,78.67,198.92c36.72,36.99,82.85,74.38,106.8,121.63
			c14.87,29.34-0.99,50.28-14.32,76.43c-27.85,54.62-55.69,109.23-83.54,163.85c-14.5,28.43-31.59,56.66-43.76,86.17
			c-8.55,20.72-8.83,40.29,4.69,58.7c27.28,37.16,97.32,60.23,69.51,118.47"/>
		<path class="st0" d="M205.15,344.06c80.9,22.54,167.64,25.23,251.03,30.71c91.98,6.04,184.03,10.88,276.01,16.84
			c83.58,5.41,167.47,11.24,250.45,22.95c29.75,4.2,59.38,8.98,88.33,17.16c13.97,3.95,30.71,7.77,42.06,17.42
			c16.94,14.39,6.78,26.29-0.43,43.34c-7.07,16.73-11.96,34.19-14.62,52.15c-5.22,35.35-1.28,70.96,4.75,105.94
			c10.22,59.28,33.58,125.42-6.69,178.2c-45.64,59.83-124.68,91.53-193.44,114.9c-46.47,15.8-94.21,28.48-139.72,47.02
			c-34.97,14.25-74.23,27.92-103.12,52.98c-56.29,48.83-21.43,116.75,6.02,171.46c14.13,28.15,38.25,66.54,26.94,99.13
			c-8.61,24.8-24.59,48.97-36.52,72.37c-26.99,52.93-53.97,105.85-80.96,158.78c-12.4,24.32-34.73,54.32-34.65,82.67
			c0.06,21.93,14.5,37.2,30.12,50.79c16.63,14.47,37.26,27.6,46.65,48.4c13.92,30.85-4.89,62.26-23.32,86.46"/>
		<path class="st0" d="M562.35,313.87c56.26,28.37,118.47,40.92,180,52.51c83.42,15.71,167.57,27.06,251.53,39.43
			c59.48,8.77,123.71,13.04,180.7,33.02c10.09,3.54,29.5,9.03,33.89,19.87c4.13,10.19-0.28,14.42-4.75,23.58
			c-15.71,32.19-32.32,62.72-41.32,97.69c-8.61,33.45-10.85,67.77-10.84,102.19c0,60.89,4.44,118.18-33.42,170
			c-39.16,53.61-99.06,85.8-148.84,128.02c-24.42,20.71-37.93,44.55-56.85,69.48c-18.61,24.51-43.39,43.85-63.74,66.83
			c-39.68,44.8-47.08,91.69-54.81,148.82c-7.54,55.7-43.92,107.76-69.14,157.23c-26.97,52.89-53.94,105.79-80.91,158.68
			c-11.42,22.39-23.31,46.72-10.76,71.18c8.56,16.68,25.14,27.9,38.75,40.14c16.57,14.89,31.28,32.2,30.12,55.84
			c-2.61,53.16-71.4,92.35-107.7,120.41"/>
		<path class="st0" d="M988.86,233.98c26.41,29.13,62.05,46.56,97.1,63.27c45.19,21.55,91.96,40.07,135.91,64.18
			c24.76,13.58,61.17,32.24,70.46,61.6c6.76,21.37-11.23,54.2-18.39,74.48c-25.41,72.01-64.16,137.71-83.36,211.93
			c-14.16,54.74-21.18,110.73-50.33,160.27c-31.15,52.94-79.01,91.81-115.24,140.71c-32.28,43.57-54.89,99.25-79.18,147.72
			c-24.84,49.58-45.57,101.88-74.42,149.26c-28.41,46.66-50.96,97.78-75.8,146.49c-14.61,28.66-29.23,57.32-43.84,85.98
			c-12.06,23.66-27.85,47.85-35.19,73.44c-14.99,52.22,29.29,64.38,56.62,97.45c16.32,19.74,13.5,48.17-1.08,68.55
			c-21.75,30.4-62.17,52.02-92.71,71.9c-51.22,33.34-103.87,64.46-156.23,95.95"/>
		<path class="st0" d="M1320.79,148.19c-3.14,48.11,43.81,88.68,51.06,135.69c4.86,31.54-7.79,63.58-15.61,93.72
			c-8.08,31.17-16.34,62.29-24.74,93.38c-24.39,90.23-46.58,183.74-85.73,269.03c-24.23,52.79-44.52,107.85-71.06,159.52
			c-25.91,50.47-57.25,98.67-85.61,147.8c-28.92,50.11-64.13,96.18-90.39,147.9c-23.98,47.22-38.64,98.11-60.35,146.27
			c-23.29,51.63-50.41,101.62-76.14,152.07c-13.36,26.2-26.72,52.4-40.08,78.6c-12.4,24.31-27.5,48.87-32.02,76.2
			c-7.88,47.71,28.68,64.31,49.82,99.87c23.54,39.61-23.47,66.19-52.33,85.77c-115.89,78.61-244.68,139-368.35,204.05"/>
		<path class="st0" d="M1490.92,100.48c-10.49,15.58-15.97,33.66-22.34,51.16c-8.95,24.56-21.01,47.54-28.43,72.61
			c-22.18,74.93-43.55,150.1-64.23,225.46c-28.8,104.95-57.19,210.41-80.18,316.83c-12.89,59.65-29.72,112.34-60.05,165.54
			c-28.94,50.77-49.87,104.98-86.8,150.78c-39.5,48.99-84.48,94.19-115.67,149.34c-26.14,46.24-34.54,96.75-45.64,147.96
			c-11.49,53.04-30.56,101.18-56.21,148.9c-26.77,49.79-59.38,101.73-75.69,156.1c-6.29,20.98-8.71,42.58-5.01,64.27
			c3.28,19.24,11.98,37.44,13.87,56.92c1.68,17.36-6.33,27.61-18.53,39.57c-27.32,26.77-62.03,47.1-94.54,66.77
			c-123.43,74.7-253.84,138.03-382.2,203.66"/>
		<path class="st0" d="M1575.55,125.96c-44.21,17.21-61,63.1-77.57,103.81c-33.07,81.24-61.07,164.67-87.87,248.16
			c-31.99,99.67-74.18,205.97-72.56,312.12c0.93,61.25-2.45,118.02-29.68,174c-26.51,54.48-61.54,109.75-104.72,152.43
			c-48.39,47.83-103.78,91.11-140.75,149.12c-33.51,52.57-29.31,109.11-31.04,169.09c-1.5,51.92-6.87,103.85-33.12,149.73
			c-25.9,45.26-54.23,88.95-77.8,135.62c-24.05,47.63-36.85,95.66-45.06,147.85c-3.48,22.12-23.2,40-39.02,54
			c-23.25,20.57-49.1,38.19-75.06,55.13c-103.28,67.45-213.53,124.33-321.83,183.13"/>
		<path class="st0" d="M1705.83,205.94c-56.11,16.28-97.76,66.93-131.13,112.32c-47.64,64.81-83.78,137.73-115.03,211.59
			c-24.5,57.92-54.13,118.14-70.6,179.05c-9.16,33.85-2.18,68.87,2.73,102.83c9.15,63.38,8.29,123.23-27.44,178.78
			c-18.64,28.99-42.4,55.29-62.81,83.14c-20.59,28.09-41.83,55.65-64.8,81.86c-43.39,49.5-101.18,92.23-135.33,149
			c-33.09,55.01-18.5,131.21-15.25,191.97c2.91,54.43,8.73,119.78-25.35,166.42c-27.28,37.34-62.99,66.48-86.12,107.22
			c-26.82,47.23-45.54,101.06-65.69,151.35c-17.71,44.2-50.59,77.02-86.88,106.86c-63.29,52.04-133.69,95.37-202.24,139.99"/>
		<path class="st0" d="M1855.69,312.08c-140.02,51.45-245.37,150.78-322.03,277.63c-17.75,29.37-33.36,59.74-48.62,90.45
			c-9.06,18.25-18.64,35.43-22.33,55.71c-6.73,36.96,4.8,73.93,8.58,110.62c3.37,32.7,2.06,65.52-10.82,96.19
			c-14.36,34.18-39.59,56.54-65.72,81.53c-52.31,50.03-83.34,122.56-123.7,181.91c-19.43,28.57-40.38,55.94-61.8,83.03
			c-14.8,18.72-31.48,37.08-39.52,59.89c-24.42,69.33-10.7,153.45-8.98,225.3c1.38,57.56,5.92,123.63-41.23,164.45
			c-39.93,34.57-92.38,57.53-122.86,102.2c-24.66,36.14-23.53,84.45-35.61,125.48c-23.57,80.02-72.23,137.54-129.12,196.77"/>
		<path class="st0" d="M1977.82,401.59c-69.57,21.79-139.1,41.16-202.66,78.08c-57.67,33.5-109.2,78.42-148.18,132.69
			c-30.13,41.95-48.95,86.14-55.56,137.48c-5.83,45.27-2.45,90.98-7.11,136.29c-3.71,36.11-15.44,68.29-41.87,94.04
			c-29.57,28.81-69,42.04-95.48,74.59c-51.03,62.73-77.17,144.75-112.76,216.49c-14.61,29.46-30.43,58.25-47.77,86.19
			c-11.86,19.11-20.94,37.07-25.05,59.42c-12.49,67.85,0.74,139.8,0.88,208.2c0.07,35.13,0.24,75.44-14.64,108.12
			c-13.49,29.63-40.26,50.67-66.46,68.64c-50.58,34.7-119.12,59.44-157.42,109.23c-29.14,37.89-3.9,68.27,0.33,108.62
			c6.31,60.2-36.2,125.8-69.67,171.95"/>
		<path class="st0" d="M2040.01,444.87c-61.74,23.35-127.66,33.07-188.21,60.02c-46.23,20.58-98.09,52.5-120.34,100.17
			c-48.83,104.6-18.87,227.15-60.54,332.85c-15.85,40.19-45.75,66.9-83.96,85.75c-38.47,18.98-71.95,42.93-100.27,75.41
			c-61.49,70.52-83.88,158.63-117.39,243.6c-18.64,47.27-50.06,89.94-56.82,141.04c-7.68,58.09-0.14,117.28-4.95,175.62
			c-2.99,36.19-10.05,68.85-30.81,99.19c-19.17,28.01-45.13,50.72-71.96,71.14c-35.62,27.11-74.08,50.04-111.16,75.02
			c-26.93,18.15-57.84,39.58-74.48,68.33c-25.46,43.99,22.1,58.74,39.94,91.06c11.36,20.58,6.95,43.75-0.96,64.79
			c-17.56,46.7-51.42,87.88-81.04,127.22"/>
		<path class="st0" d="M2049.46,482.76c-48.63,13.89-100.27,19.76-147.23,39.07c-51.27,21.08-64.41,59.79-71.85,112.06
			c-8.93,62.73-8.72,126.49-11.79,189.66c-2.81,57.74-4.66,122.98-34,174.58c-22.56,39.67-60.67,54.31-97.93,76.52
			c-38.87,23.16-74.41,51.38-105.38,84.41c-63.04,67.23-102.44,149.22-141.14,231.75c-21.24,45.29-45.6,88.11-55.75,137.63
			c-10.09,49.23-11.23,99.78-23.91,148.58c-16.89,64.94-48.78,113.84-98.4,158.94c-33.18,30.16-69.04,57.18-102.83,86.65
			c-27.24,23.76-57.56,49.98-71.61,84.2c-8.74,21.29-8.63,39.46,9.64,54.62c12.89,10.7,29.4,18.04,38.58,32.71
			c14.66,23.43,1.84,50.27-8.34,72.66c-31.4,69.07-68.86,134.95-109.03,199.25"/>
		<path class="st0" d="M2055.44,545.38c-33.55,14.39-72.05,20.14-103.49,39.16c-36.74,22.22-35.83,77.35-37.46,115.41
			c-2.84,66.08,0.36,132.49,2.02,198.56c1.28,51,3.82,113.44-25.24,158.2c-20.33,31.32-61.83,47.52-93.02,65.71
			c-34.69,20.23-68.17,42.4-98.67,68.61c-66.98,57.55-113.48,130.6-158.73,205.38c-30.92,51.09-57.55,104.46-78.24,160.51
			c-16.58,44.91-35.84,90.83-48.23,136.95c-14.05,52.28-31.4,95.18-66.33,137.46c-46.96,56.83-109.14,107.36-138.28,176.72
			c-8.57,20.41-12.21,41.27-3.49,62.15c6.51,15.6,19.1,28.55,21.84,45.69c2.08,12.99-2.34,25.06-7.35,36.82
			c-10.42,24.47-20.41,49.04-30.03,73.86c-38.17,98.41-79.01,195.36-125.37,290.21"/>
		<path class="st0" d="M2083.55,620.07c-21.15,19.25-48.63,33.51-66.15,56.48c-23.65,31-25.29,77.31-26.91,114.41
			c-2.59,59.04,0.89,118.15,0.52,177.21c-0.27,44.17,1.65,94.37-24.84,132.04c-19.54,27.8-47.8,42.17-77.17,57.67
			c-30.44,16.07-60.65,32.37-88.5,52.75c-64.58,47.27-107.15,111.32-146.77,179.59c-33.83,58.28-64.25,118.3-94.21,178.63
			c-23.55,47.42-57.05,94.43-72.74,145.04c-5.58,17.99-6.13,36.14-9.44,54.51c-4.01,22.27-13,42.74-24.02,62.39
			c-33.62,59.94-81.6,111.06-111.25,173.29c-10.92,22.93-18.19,46.81-20.85,72.08c-2.12,20.18-2.07,40.45-7.79,60.11
			c-7.54,25.93-21.34,50.86-31.23,75.93c-15.32,38.87-29.78,78.08-44.06,117.34c-41.93,115.24-81.15,231.46-124.33,346.24"/>
		<path class="st0" d="M2140.59,685.22c-17.05,28.28-37.47,54.55-54.12,82.88c-19.23,32.72-27.21,70.47-31.96,107.73
			c-10.16,79.73,4.18,175.35-42.65,245.34c-33.63,50.27-90.97,70.76-138.11,104.95c-53.57,38.85-80.6,106.49-110.93,163.13
			c-33.31,62.22-65.26,125.2-99.62,186.85c-28.97,51.98-59.48,99.36-75.12,157.4c-10.68,39.64-21.29,76.77-38.83,114.05
			c-26.64,56.63-63.25,107.65-92.39,162.97c-27.17,51.6-46.24,106.99-70.9,159.78c-35.76,76.54-62.97,157.7-91.57,237.06
			c-42.39,117.63-83.48,235.73-125.24,353.58"/>
		<path class="st0" d="M2235.51,709.09c-53.58,68.62-101.3,144.69-126.16,228.8c-10.08,34.1-18.29,69.2-26.12,103.88
			c-7.22,31.98-7.48,65.51-18.24,96.71c-18.98,55.06-69.49,84.88-111.93,120.38c-48.33,40.43-78.57,97.8-104.12,154.45
			c-27.05,59.97-55.74,119.41-88.67,176.4c-32.64,56.49-38.7,113.87-47.81,177.23c-3.55,24.7-8.36,49.58-20.1,71.87
			c-11.36,21.55-28.43,37.25-45.13,54.49c-42.5,43.87-79.52,90.11-107.27,144.68c-29.89,58.78-62.48,116.95-89.16,177.23
			c-73.07,165.07-129.09,338.14-190.87,507.6"/>
		<path class="st0" d="M2396.3,693.05c-80.19,86.42-172.13,168.88-225.13,276.04c-15.53,31.41-35.31,64.17-36.21,99.94
			c-0.8,31.79,8.19,62.85,8.59,94.58c0.75,59.7-38.15,97.74-77.43,137.54c-48.81,49.46-93.19,103.72-133.15,160.54
			c-31.51,44.81-70.55,96.99-86.8,149.93c-19.88,64.74,1.46,137.13-0.13,203.34c-1.52,63.47-27.88,102.95-80.11,137.18
			c-55.73,36.53-114.26,67.64-154.47,122.65c-35.83,49.02-60.23,109.52-87.2,163.8c-58.49,117.74-101.68,243.24-149.49,365.5"/>
		<path class="st0" d="M2569.21,670.25c-73.93,67.73-150.15,133.2-221.22,203.99c-39.48,39.32-80.09,80.95-107.76,129.81
			c-17.33,30.61-28.06,62.19-23.58,97.64c4.17,32.94,19.08,62.59,27.37,94.42c17.17,65.85-16.93,106.93-58.06,154.32
			c-49.87,57.47-99.29,115.33-148.78,173.12c-35.1,40.98-87.06,83.54-97.84,138.65c-13.9,71.07,21.71,139.62,26.66,209.55
			c2.13,30.14-0.88,63.8-20.88,88.05c-18.7,22.68-50.11,35.69-76.4,46.97c-64.85,27.8-138.34,49.05-186.25,104.21
			c-40.66,46.82-62.93,113.79-90.86,168.64c-37.69,74.01-75.02,147.04-107.36,223.69"/>
		<path class="st0" d="M2687.62,677.77c-86.73,74.34-175.78,146.27-259.49,224.05c-42.96,39.91-94.11,83.65-118.57,138.37
			c-29.82,66.71,0.71,126.33,22.06,189.88c8.9,26.5,14.65,54.03,4.8,81.13c-11.09,30.48-31.66,59.51-49.16,86.52
			c-43.26,66.75-91.24,130.95-142.79,191.52c-35.76,42.01-88.05,79.7-106.04,133.61c-20.75,62.2,0.81,127.95,5.28,190.88
			c2.3,32.35-0.03,60.58-23.34,84.97c-22.66,23.7-54.42,35.18-84.6,46.03c-63.34,22.76-141.9,39.69-185.23,95.97
			c-23.65,30.72-36.76,71.84-52.44,107c-15.79,35.41-31.53,70.85-48.54,105.7c-25.46,52.17-57.81,99.82-85.8,150.53"/>
		<path class="st0" d="M2721.83,732.12c-84.07,73.24-171.95,142.68-252.08,220.33c-37.82,36.65-71.72,74.16-90.85,123.81
			c-24.69,64.08-8.68,121.63,2.96,186.16c11.62,64.44-14.21,128.01-38.49,186.89c-29.36,71.22-65.42,140.79-109.17,204.28
			c-30.88,44.82-81.78,66.55-115.43,108.54c-38.16,47.62-35.21,106.49-38.11,164.06c-3.45,68.27-52.25,107.72-109.68,136.16
			c-32.14,15.91-66.56,28.22-97.07,47.24c-28.9,18.02-45,41.42-58.75,71.98c-40.15,89.23-72.69,181.7-113.42,270.69
			c-12.97,28.33-26.28,57.06-45.51,81.77c-12.36,15.88-25.46,31.14-37.43,47.32"/>
		<path class="st0" d="M2695.73,820.01c-63.94,61.67-135.9,119.46-192.06,188.61c-23.86,29.38-40.8,67.98-57.07,102.12
			c-29.61,62.13-33.26,122.35-39.71,189.47c-6.22,64.69-19.74,128.33-37.06,190.91c-9.87,35.66-20.91,71-32.64,106.09
			c-10,29.9-18.33,62.73-33.2,90.65c-28.25,53.06-86.45,67.4-132.69,99.62c-52.08,36.28-63.57,83.33-74.61,142.31
			c-11.45,61.14-47.52,105.3-94.77,143.63c-24.99,20.27-52.24,38.68-73.45,63.13c-22.89,26.38-34.42,62.42-47.51,94.28
			c-44.76,108.98-82.1,221.08-129.82,328.83c-12.77,28.82-25.79,55.56-46.4,79.52c-14.4,16.74-30.09,32.34-45.07,48.56"/>
		<path class="st0" d="M2678,903.25c-38.16,44.77-82.83,88.2-109.96,140.9c-17.81,34.59-37.94,67.91-55.55,102.6
			c-30.7,60.49-62.21,123.45-80.37,189.04c-16.54,59.73-28.44,120.83-42.13,181.25c-7.53,33.24-15.23,66.46-22.49,99.76
			c-6.34,29.08-11.57,58.23-25.63,84.83c-27.37,51.78-79.33,78.11-127.25,107.44c-24.25,14.84-48.2,30.25-62.79,55.44
			c-13.93,24.05-19.41,53.23-28.09,79.46c-18.34,55.44-45.82,103.06-80.61,149.7c-45.15,60.53-72.87,126.77-100.67,196.79
			c-45.07,113.52-83.51,230.15-132.9,341.9c-27.19,61.52-69.96,111.38-113.85,161.5"/>
		<path class="st0" d="M2699.92,964.43c-22.56,36.34-40.82,75.84-68.3,108.77c-22.63,27.12-46.86,52.52-65.39,82.81
			c-39.61,64.77-49.54,141.33-78.2,210.75c-23.26,56.34-49.35,109.48-66.56,168.32c-16.51,56.47-20.99,116.88-40.44,172.19
			c-18.08,51.43-55.57,86.41-94.75,122.32c-43.55,39.93-73.18,88.47-102.18,139.6c-63.86,112.6-121.78,230.87-170.7,350.63
			c-42.37,103.72-77.71,211.32-125.82,312.56c-40.14,84.47-93.01,160.62-146.8,236.74"/>
		<path class="st0" d="M2761.09,1003.79c-9.89,19.76-17.47,38.2-33.86,53.66c-13.23,12.47-28.89,21.75-44.51,30.89
			c-28.66,16.77-57.96,33.11-79.65,58.93c-52.63,62.62-50.52,157.98-65.47,234.57c-12.21,62.6-30.99,122.29-59.74,179.29
			c-14.24,28.22-25.25,54.14-29.86,85.63c-3.56,24.3-4.77,48.9-8.71,73.15c-18.61,114.63-114.6,197.27-179.4,287.73
			c-33.82,47.22-60.24,98.02-86.11,149.86c-29.14,58.39-59.12,116.04-85.44,175.82c-38.43,87.29-72.2,176.71-113.31,262.8
			c-47.94,100.39-106.41,194.78-162.6,290.63"/>
		<path class="st0" d="M2831.02,1037.66c-50.21,67.97-145.09,42.75-201.23,100.02c-27.3,27.85-32.93,65.9-37.56,102.95
			c-6.26,50.08-9.37,100.51-14.52,150.71c-7.08,69.06-19.95,134.3-41.79,200.07c-17.09,51.47-14.6,104.97-18.1,158.33
			c-3.47,53-17.61,105.27-50.61,147.81c-39.12,50.44-87.5,93.05-128.61,141.83c-40.11,47.59-66.16,99.47-95.97,153.45
			c-28.81,52.17-54.87,104.73-80.81,158.35c-35.2,72.76-67.8,146.71-102.95,219.48c-47.28,97.89-100.96,192.39-150.81,288.95"/>
		<path class="st0" d="M2895.35,1066.7c-32.87,27.99-72.11,37.28-113.83,44.18c-33.52,5.54-75.04,8.37-101.92,31.74
			c-29.64,25.76-35.12,74.27-40.64,110.67c-7.8,51.44-11.21,103.47-16.22,155.23c-3.9,40.25-8.25,80.59-16.16,120.29
			c-5.79,29.04-16,57.08-19.57,86.54c-6.82,56.4,3.73,112.58,4.96,168.93c1.23,56.85-13.47,105.23-49.99,149.39
			c-43.15,52.17-96.56,94.89-140.64,146.28c-38.37,44.73-64.14,96.97-103.6,141.02c-43.21,48.24-78.64,96.82-93.79,160.86
			c-7.41,31.33-12.24,61.98-22.88,92.55c-9.96,28.62-23.31,55.28-36.75,82.37c-43.23,87.14-87.43,173.8-130.86,260.84"/>
		<path class="st0" d="M2962.76,1099.67c-30.4,27.12-65.24,41.26-103.74,53.13c-33.12,10.22-71.52,18.35-95.42,45.35
			c-58.44,66.03-65.54,168.76-81.01,251.3c-12.15,64.8-39.27,128.09-41.6,194.17c-2.06,58.47,9.49,116.39,8.17,174.8
			c-2.88,127.32-112.74,199.86-183.83,291.85c-19.41,25.12-32.28,54.73-55.94,76.33c-26.27,23.99-57.48,42.2-86.72,62.21
			c-53.28,36.46-106.72,81.06-111.01,150.23c-4.06,65.52,11.88,129.92-5.77,194.66c-8.96,32.86-25.02,62.5-40.95,92.37
			c-19.19,35.99-36.97,72.77-55.31,109.2"/>
		<path class="st0" d="M3035.79,1139.81c-45.21,58.32-112.25,89.42-167.55,136.61c-66.16,56.45-89.75,137.37-112.98,218.02
			c-5.14,17.83-9.92,36.15-17.03,53.34c-6.06,14.66-14.11,27.77-18.36,43.23c-7.67,27.91-11.88,57.22-13.8,86.06
			c-3.91,59.05,3.03,119.48-8.38,177.89c-22.91,117.27-111.67,195-171.15,292.88c-40.17,66.1-113.49,87.66-180.82,118.17
			c-60.07,27.22-144.61,68.33-131.2,147.49c12,70.79,52.31,134.94,50.4,208.47c-1.8,69.33-48.66,134.31-79.6,194.1"/>
		<path class="st0" d="M3109.33,1177.18c-19.83,35.36-39.15,70.16-63.46,102.71c-23.1,30.92-49.3,45.54-82.87,63.46
			c-70.29,37.52-107.6,94.75-135.78,167.77c-15.38,39.86-21.84,73.14-22.06,116.09c-0.16,31.65,0.2,63.44-4.88,94.78
			c-5.12,31.6-17.83,60.13-26.62,90.64c-7.43,25.81-14.65,50.64-24.75,75.58c-20.21,49.91-40.88,99.04-67.64,145.89
			c-15.3,26.78-31.94,52.72-47.95,79.07c-12.9,21.25-22.96,46-39.79,64.44c-25.63,28.08-64.31,43.94-98.51,58.45
			c-39.59,16.81-79.95,31.76-119.12,49.56c-37.5,17.04-78.42,36.4-107.29,66.63c-23.71,24.83-24.36,53.46-15.26,84.97
			c21.5,74.41,77.67,138.96,81.28,218.66c3.22,71.02-57.81,128.64-91.4,186.18"/>
		<path class="st0" d="M3237.57,1185.14c-31.31,47.7-69.94,91.81-108.08,134.16c-26.65,29.6-54.93,47.24-91.93,60.71
			c-61.56,22.41-141.33,68.93-135.05,145.59c8.22,100.54,88.02,191.96,77.33,295.18c-3.79,36.6-25.6,60.82-59.14,74.3
			c-29.82,11.98-57.64,21.31-85.07,38.79c-50.14,31.95-68.45,83.29-94.67,134c-23.91,46.23-42.59,105.13-90.13,131.58
			c-68.81,38.28-149.47,49.39-218.03,89.58c-33.13,19.42-67.65,45.68-82.74,82.22c-14.2,34.37-11.26,72.69-1.69,107.85
			c19.16,70.35,80.49,143.89,66.16,220.08c-6.21,33.04-34.33,57.75-57.9,79.51c-25.9,23.9-51.3,47.22-72.8,75.3"/>
		<path class="st0" d="M3437.29,1160.45c-72.08,113.86-205,186.01-328.16,231.19c-32.32,11.86-71.64,20.08-96.73,45.23
			c-12.28,12.31-25.67,29.09-25.12,47.19c0.93,30.69,21.76,63.97,36.17,89.68c44.48,79.35,97.86,153.37,144.18,231.63
			c27.37,46.24,64.45,102.98,66.36,158.67c1.73,50.6-39.13,60.05-81.37,62.66c-52.74,3.27-105.69-0.46-158.49,0.72
			c-70.45,1.58-151.7,8.33-188.63,77.22c-12.59,23.48-18.45,51.38-36.78,71.41c-17.28,18.89-41.93,26.93-66.03,33.23
			c-65.04,16.99-134.19,25.83-186.67,72.13c-63.06,55.64-67.28,143.18-52.27,220.41c8.28,42.62,22.21,83.83,31.31,126.24
			c7.69,35.84,12.31,73.06-9.4,104.92c-20.12,29.54-51.51,45.79-82.01,62.64c-32.29,17.84-63.03,35.88-89.19,62.21"/>
		<path class="st0" d="M3662.46,1124.15c-21.14,32.88-50.97,57.41-81.76,80.95c-44.25,33.82-91.32,64.16-139.45,92.15
			c-76.65,44.57-156.05,83.62-237.08,119.52c-25.22,11.17-50.8,21.76-75.44,34.17c-13.34,6.72-33.42,15.33-41.75,28.4
			c-12.5,19.62,1.83,47.07,10.95,65.28c22.88,45.65,55.17,87.31,86.1,127.6c70.76,92.2,147.89,179.39,216.98,272.89
			c22.9,30.99,45.07,62.66,64.38,96.03c13.54,23.39,31.65,55.35,30.35,83.82c-2.43,53.12-88.17,31.95-119.85,27.68
			c-73.95-9.97-146.95-26.09-220.51-38.45c-62.23-10.46-127.34-21.73-190.66-16.02c-30.92,2.79-66.3,10.16-85.5,37.14
			c-9.55,13.41-12.88,28.23-24.37,40.68c-8.05,8.73-17.48,15.74-28.03,21.15c-21.08,10.82-45.13,14.17-68.41,16.55
			c-58.8,6.01-114.31,12.22-148.17,67.2c-41.96,68.13-44.29,150.98-38.64,228.46c5.92,81.1,24.49,164.03-29.02,233.52
			c-24.1,31.3-56.7,53.12-91.71,70.61c-33.71,16.84-69.6,29.06-98.05,54.46"/>
		<path class="st0" d="M3827.43,1115.45c-70.55,80.34-170.35,138.71-259.9,194.95c-91.72,57.6-186.51,109.77-280.69,163.16
			c-32.59,18.47-99.67,42.11-93.22,88.78c4.4,31.81,25.81,63.58,42.87,89.72c26.26,40.23,56.04,78.11,86.02,115.59
			c72.97,91.23,151.08,178.22,224.09,269.41c29.05,36.28,58.88,73.42,82.41,113.66c8.73,14.93,26.17,40,20.56,58.28
			c-7.3,23.78-40.26,21.77-59.51,21.25c-33.43-0.91-66.62-7.55-99.34-14c-81.74-16.13-162.32-37.95-243.55-56.4
			c-70.37-15.98-145.25-34.47-218.02-31.71c-19.2,0.73-42.86,2.84-59.31,14.23c-11.41,7.9-16.06,19.36-23.25,30.72
			c-28.75,45.45-75.75,59.63-126.52,65.96c-56.08,6.99-105.31,10.91-127.26,70.35c-25.23,68.32-24.76,146.61-29.05,218.36
			c-4.79,80.26-21.89,159.95-65.45,228.94c-21.06,33.34-48.73,60.99-80.51,84.13c-30.58,22.27-64.38,39.78-92.91,64.81"/>
	</g>
</g>
</svg>
